# xmcd
#
# Track frame offsets:
#	150
#	6680
#	15229
#	23950
#	33586
#	53467
#	68117
#	86948
#	101279
#	111856
#	130389
#	172319
#	178531
#	186697
#	205055
#	227506
#
# Disc length: 3323 seconds
#
# Revision: 0
# Processed by: cddbd v1.5.2PL0 Copyright (c) Steve Scherf et al.
# Submitted via: audiograbber 1.83.01
#
DISCID=db0cf910
DTITLE=Andy Fairweather-Low and The Lowriders - Live From The New Theatre, Cardif
DTITLE=f - Disk 2
DYEAR=2015
DGENRE=Blues
TTITLE0=Philly Dog
TTITLE1=Ride Your Pony
TTITLE2=Don't Fight It
TTITLE3=Fa Fa Fa Sad Song
TTITLE4=When A Man Loves A Woman
TTITLE5=Hard Hat Boogie
TTITLE6=La La Music
TTITLE7=Route 66
TTITLE8=High In The Sky
TTITLE9=Bend Me Shape Me
TTITLE10=Gin House Blues
TTITLE11=Tequila
TTITLE12=Peter Gunn
TTITLE13=Hideaway
TTITLE14=Putting On The Style
TTITLE15=Half As Nice
EXTD=
EXTT0=
EXTT1=
EXTT2=
EXTT3=
EXTT4=
EXTT5=
EXTT6=
EXTT7=
EXTT8=
EXTT9=
EXTT10=
EXTT11=
EXTT12=
EXTT13=
EXTT14=
EXTT15=
PLAYORDER=
